<svg version="1" xmlns="http://www.w3.org/2000/svg" width="682.667" height="682.667" viewBox="0 0 512.000000 512.000000"><path d="M0 256v256h512V0H0v256zm129.9-68.6c.8.5 3 1 5 1.2 2 .2 3.7.8 3.9 1.3.2.6 1 .7 1.8.4.8-.3 1.4 0 1.4.6s.6.8 1.4.5c.7-.3 2 .1 2.7.9.8.7 2 1.2 2.7.9.6-.2 1.5.3 1.8 1.2.3.9 1 1.4 1.4 1.1 1.7-1 14.5 10.2 15.2 13.4.2.8 1.1 2.3 2.1 3.3 1 1.1 1.6 2.6 1.3 3.4-.3.8-.1 1.4.3 1.4.9 0 3.4 8.9 3 10.6-.1.5.1 1.7.6 2.7 1 2.4-.2 20.1-1.4 20.5-.5.2-.7 1.2-.4 2.2.3 1.2 0 2-.6 2-.7 0-.9.4-.6 1 .8 1.3-3.1 10-4.5 10-.6 0-.8.5-.5 1 .8 1.3-10.2 12.3-11.5 11.5-.5-.3-1-.1-1 .4 0 1.4-9.8 6.3-11 5.6-.6-.4-1-.1-1 .5 0 .7-.6 1-1.4.7-.8-.3-1.6-.2-1.8.3-.2.5-1.9 1.1-3.8 1.2-1.9.2-3.8.7-4.2 1.2-.3.5-9 1.1-19.2 1.4l-18.6.5V347H65V185.8l31.8.4c17.4.1 32.3.7 33.1 1.2zm95.3 56.8c.1 32.1.2 59.3.2 60.5 0 1.3.3 2.3.7 2.3.6 0 2.1 4.8 2.3 7.5.1.5 1.3 2.3 2.8 3.9 1.5 1.6 2.4 3.4 2.1 3.9-.3.6-.1.7.4.4.6-.4 2.2.3 3.5 1.6 2.8 2.5 3.6 2.7 13.8 3.4 5.5.3 8.7 0 12-1.2 2.5-.9 5.1-1.7 5.8-1.7.6-.1 1-.4.7-.6-.3-.3.9-1.5 2.5-2.7 1.6-1.2 2.7-2.5 2.3-2.8-.3-.4.2-.9 1.1-1.3.9-.3 1.3-1 1-1.5-.3-.5-.1-.9.4-.9.6 0 .9-.6.9-1.3-.2-2.1 1.5-8.7 2.2-8.7.3 0 .6-1.2.7-2.8 0-1.5.1-28.2.2-59.5l.2-56.7h28v58.3c0 32.1-.3 58.6-.6 59-.4.3-.8 2.5-1 4.9-.1 2.3-.7 4.4-1.3 4.6-.5.2-.7 1-.4 1.8.3.8 0 1.4-.7 1.4-.6 0-.9.4-.5 1 .8 1.3-4.2 10.9-6 11.7-.8.3-1.3.9-1 1.3.6.9-11.1 11.9-12.8 12.1-.7.1-1.5.1-1.9 0-.5 0-.8.3-.8.9 0 1.2-6.9 4.2-8.1 3.4-.5-.3-.9-.1-.9.5 0 3-27.4 4.2-37.5 1.6-3.3-.9-6.2-2-6.3-2.6-.2-.5-.8-.7-1.3-.4-1.1.8-6.9-2.3-6.9-3.6 0-.6-.5-.7-1-.4-1.6 1-13.5-11.5-16.4-17.4-1.5-2.9-3.6-8.7-4.7-12.9-1.8-7-1.9-11.5-1.9-66.4V186h28l.2 58.2zm184.7-56.8c.8.5 3 1 5 1.2 2 .2 3.7.8 3.9 1.3.2.6 1 .7 1.8.4.8-.3 1.4 0 1.4.6s.6.8 1.4.5c.7-.3 2 .1 2.7.9.8.7 2 1.2 2.7.9.6-.2 1.5.3 1.8 1.2.3.9 1 1.4 1.4 1.1 1.7-1 14.5 10.2 15.2 13.4.2.8 1.1 2.3 2.1 3.3 1 1.1 1.6 2.6 1.3 3.4-.3.8-.1 1.4.3 1.4.9 0 3.4 8.9 3 10.6-.1.5.1 1.7.6 2.7 1 2.4-.2 20.1-1.4 20.5-.5.2-.7 1.2-.4 2.2.3 1.2 0 2-.6 2-.7 0-.9.4-.6 1 .8 1.3-3.1 10-4.5 10-.6 0-.8.5-.5 1 .8 1.3-10.2 12.3-11.5 11.5-.5-.3-1-.1-1 .4 0 1.4-9.8 6.3-11 5.6-.6-.4-1-.1-1 .5 0 .7-.6 1-1.4.7-.8-.3-1.6-.2-1.8.3-.2.5-1.9 1.1-3.8 1.2-1.9.2-3.8.7-4.2 1.2-.3.5-9 1.1-19.2 1.4l-18.6.5V347h-28V185.8l31.8.4c17.4.1 32.3.7 33.1 1.2z"/><path d="M93 238v31.2l15.5-.4c8.5-.1 15.5-.6 15.5-1.1 0-.4.7-.7 1.5-.7 5 0 15.4-8 17-13 .3-1.1 1.1-2 1.6-2 .6 0 .8-.3.5-.8-.2-.4 0-2.7.5-5.2 1.2-5.9 1.2-12.5 0-17.4-.5-2.2-.8-4.4-.5-4.8.3-.4.1-.8-.4-.8-1 0-3.7-5-3.3-6.3.1-.5-.3-.6-.8-.3-.5.4-1.2-.3-1.6-1.4-.3-1.1-.9-1.9-1.3-1.8-1 .2-8.2-3.4-8.2-4.2 0-.8-1.6-1-19.7-1.6l-16.3-.6V238zM373 238v31.2l15.5-.4c8.5-.1 15.5-.6 15.5-1.1 0-.4.7-.7 1.5-.7 5 0 15.4-8 17-13 .3-1.1 1.1-2 1.6-2 .6 0 .8-.3.5-.8-.2-.4 0-2.7.5-5.2 1.2-5.9 1.2-12.5 0-17.4-.5-2.2-.8-4.4-.5-4.8.3-.4.1-.8-.4-.8-1 0-3.7-5-3.3-6.3.1-.5-.3-.6-.8-.3-.5.4-1.2-.3-1.6-1.4-.3-1.1-.9-1.9-1.3-1.8-1 .2-8.2-3.4-8.2-4.2 0-.8-1.6-1-19.7-1.6l-16.3-.6V238z"/></svg>